<?xml version="1.0"?>
<svg xmlns="http://www.w3.org/2000/svg" id="Layer" enable-background="new 0 0 64 64" height="512px" viewBox="0 0 64 64" width="512px" class=""><g transform="matrix(1.1843, 0, 0, 1.1843, -5.89774, -5.89774)"><path d="m32 56c13.234 0 24-10.766 24-24s-10.766-24-24-24-24 10.766-24 24 10.766 24 24 24zm-19.899-26c.942-9.434 8.465-16.957 17.899-17.899v5.899h4v-5.899c9.434.942 16.957 8.465 17.899 17.899h-5.899v4h5.899c-.942 9.434-8.465 16.957-17.899 17.899v-5.899h-4v5.899c-9.434-.942-16.957-8.465-17.899-17.899h5.899v-4z" data-original="#000000" class="active-path" data-old_color="#000000" fill="#FFFFFF"/><path d="m43.162 20.838-16.743 5.581-5.581 16.743 16.743-5.581zm-8.743 13.581-7.257 2.419 2.419-7.257 7.257-2.419z" data-original="#000000" class="active-path" data-old_color="#000000" fill="#FFFFFF"/></g> </svg>
